<svg data-v-fde0c5aa="" xmlns="http://www.w3.org/2000/svg" viewBox="0 0 300 300" class="iconAbove"><!----><defs data-v-fde0c5aa=""><linearGradient data-v-fde0c5aa="" gradientTransform="rotate(25)" id="8e33190f-fffa-454f-8dfb-56cfdc36cf89" x1="0%" y1="0%" x2="100%" y2="0%"><stop data-v-fde0c5aa="" offset="0%" stop-color="#8D2CE3" stop-opacity="1"></stop><stop data-v-fde0c5aa="" offset="100%" stop-color="#F7C6F6" stop-opacity="1"></stop></linearGradient></defs><rect data-v-fde0c5aa="" fill="url(#8e33190f-fffa-454f-8dfb-56cfdc36cf89)" x="0" y="0" width="300px" height="300px" class="logo-background-square"></rect><defs data-v-fde0c5aa=""><!----></defs><g data-v-fde0c5aa="" id="63317bec-25d0-4d59-86d6-1512153f086e" fill="#ffffff" transform="matrix(1.8269974313853063,0,0,1.8269974313853063,19.342280898565882,159.3562656839253)"><path d="M6.75 10.45L6.75 10.45L6.75 10.45Q6.75 10.25 6.40 10.10L6.40 10.10L6.40 10.10Q6.06 9.94 5.35 9.94L5.35 9.94L5.35 9.94Q4.85 9.94 4.57 10.01L4.57 10.01L4.57 10.01Q4.28 10.08 4.13 10.19L4.13 10.19L4.13 10.19Q3.99 10.30 3.94 10.44L3.94 10.44L3.94 10.44Q3.90 10.58 3.90 10.73L3.90 10.73L3.90 10.73Q3.90 11.02 4.18 11.24L4.18 11.24L4.18 11.24Q4.46 11.46 4.91 11.66L4.91 11.66L4.91 11.66Q5.37 11.86 5.95 12.06L5.95 12.06L5.95 12.06Q6.53 12.26 7.14 12.50L7.14 12.50L7.14 12.50Q7.75 12.74 8.33 13.06L8.33 13.06L8.33 13.06Q8.91 13.37 9.36 13.79L9.36 13.79L9.36 13.79Q9.82 14.22 10.09 14.79L10.09 14.79L10.09 14.79Q10.37 15.35 10.37 16.10L10.37 16.10L10.37 16.10Q10.37 17.06 10.00 17.71L10.00 17.71L10.00 17.71Q9.63 18.35 8.97 18.75L8.97 18.75L8.97 18.75Q8.31 19.15 7.41 19.32L7.41 19.32L7.41 19.32Q6.50 19.49 5.43 19.49L5.43 19.49L5.43 19.49Q4.80 19.49 4.18 19.39L4.18 19.39L4.18 19.39Q3.55 19.30 2.99 19.12L2.99 19.12L2.99 19.12Q2.43 18.94 1.95 18.67L1.95 18.67L1.95 18.67Q1.47 18.41 1.12 18.08L1.12 18.08L1.12 18.08Q0.77 17.75 0.56 17.35L0.56 17.35L0.56 17.35Q0.36 16.95 0.36 16.49L0.36 16.49L0.36 16.49Q0.36 16.14 0.47 15.88L0.47 15.88L0.47 15.88Q0.58 15.62 0.76 15.45L0.76 15.45L0.76 15.45Q0.94 15.29 1.18 15.20L1.18 15.20L1.18 15.20Q1.41 15.12 1.66 15.12L1.66 15.12L1.66 15.12Q1.97 15.12 2.28 15.24L2.28 15.24L2.28 15.24Q2.58 15.35 2.83 15.58L2.83 15.58L2.83 15.58Q3.08 15.80 3.23 16.13L3.23 16.13L3.23 16.13Q3.38 16.46 3.38 16.88L3.38 16.88L3.38 16.88Q3.38 16.99 3.48 17.10L3.48 17.10L3.48 17.10Q3.58 17.22 3.77 17.32L3.77 17.32L3.77 17.32Q3.96 17.42 4.24 17.49L4.24 17.49L4.24 17.49Q4.52 17.55 4.88 17.55L4.88 17.55L4.88 17.55Q5.39 17.55 5.69 17.49L5.69 17.49L5.69 17.49Q5.99 17.42 6.15 17.32L6.15 17.32L6.15 17.32Q6.31 17.21 6.36 17.07L6.36 17.07L6.36 17.07Q6.41 16.93 6.41 16.80L6.41 16.80L6.41 16.80Q6.41 16.63 6.15 16.50L6.15 16.50L6.15 16.50Q5.90 16.37 5.49 16.23L5.49 16.23L5.49 16.23Q5.08 16.10 4.55 15.95L4.55 15.95L4.55 15.95Q4.02 15.80 3.47 15.59L3.47 15.59L3.47 15.59Q2.93 15.38 2.40 15.09L2.40 15.09L2.40 15.09Q1.87 14.81 1.46 14.40L1.46 14.40L1.46 14.40Q1.05 13.99 0.79 13.45L0.79 13.45L0.79 13.45Q0.54 12.91 0.54 12.18L0.54 12.18L0.54 12.18Q0.54 11.46 0.71 10.90L0.71 10.90L0.71 10.90Q0.89 10.33 1.21 9.89L1.21 9.89L1.21 9.89Q1.52 9.45 1.97 9.14L1.97 9.14L1.97 9.14Q2.41 8.83 2.96 8.63L2.96 8.63L2.96 8.63Q3.50 8.43 4.13 8.34L4.13 8.34L4.13 8.34Q4.75 8.24 5.43 8.24L5.43 8.24L5.43 8.24Q6.64 8.24 7.49 8.49L7.49 8.49L7.49 8.49Q8.34 8.73 8.87 9.11L8.87 9.11L8.87 9.11Q9.41 9.50 9.65 9.96L9.65 9.96L9.65 9.96Q9.89 10.43 9.89 10.88L9.89 10.88L9.89 10.88Q9.89 11.28 9.72 11.57L9.72 11.57L9.72 11.57Q9.55 11.87 9.28 12.06L9.28 12.06L9.28 12.06Q9.00 12.25 8.65 12.34L8.65 12.34L8.65 12.34Q8.31 12.43 7.95 12.43L7.95 12.43L7.95 12.43Q7.61 12.43 7.28 12.35L7.28 12.35L7.28 12.35Q6.96 12.28 6.71 12.13L6.71 12.13L6.71 12.13Q6.46 11.98 6.31 11.76L6.31 11.76L6.31 11.76Q6.15 11.55 6.15 11.27L6.15 11.27L6.15 11.27Q6.15 11.06 6.24 10.96L6.24 10.96L6.24 10.96Q6.34 10.86 6.45 10.79L6.45 10.79L6.45 10.79Q6.56 10.72 6.65 10.65L6.65 10.65L6.65 10.65Q6.75 10.58 6.75 10.45ZM21.34 11.10L21.34 11.10L21.34 11.10Q21.46 11.03 21.65 10.89L21.65 10.89L21.65 10.89Q21.83 10.75 22.20 10.61L22.20 10.61L22.20 10.61Q22.57 10.47 23.18 10.36L23.18 10.36L23.18 10.36Q23.79 10.26 24.75 10.26L24.75 10.26L24.75 10.26Q25.46 10.26 26.00 10.43L26.00 10.43L26.00 10.43Q26.53 10.60 26.91 10.90L26.91 10.90L26.91 10.90Q27.29 11.19 27.54 11.59L27.54 11.59L27.54 11.59Q27.78 11.99 27.92 12.45L27.92 12.45L27.92 12.45Q28.07 12.91 28.12 13.41L28.12 13.41L28.12 13.41Q28.18 13.91 28.18 14.40L28.18 14.40L28.18 14.47L28.18 14.47Q28.17 15.29 28.17 15.73L28.17 15.73L28.17 15.73Q28.16 16.17 28.16 16.37L28.16 16.37L28.16 16.37Q28.16 16.58 28.16 16.61L28.16 16.61L28.16 16.61Q28.16 16.65 28.16 16.65L28.16 16.65L28.16 16.65Q28.16 16.94 28.24 17.10L28.24 17.10L28.24 17.10Q28.31 17.26 28.43 17.35L28.43 17.35L28.43 17.35Q28.54 17.43 28.67 17.46L28.67 17.46L28.67 17.46Q28.81 17.49 28.92 17.53L28.92 17.53L28.92 17.53Q29.03 17.57 29.11 17.63L29.11 17.63L29.11 17.63Q29.18 17.70 29.18 17.85L29.18 17.85L29.18 17.85Q29.18 18.24 28.99 18.52L28.99 18.52L28.99 18.52Q28.79 18.79 28.42 18.97L28.42 18.97L28.42 18.97Q28.04 19.15 27.49 19.24L27.49 19.24L27.49 19.24Q26.94 19.32 26.23 19.32L26.23 19.32L26.23 19.32Q25.54 19.32 25.00 19.24L25.00 19.24L25.00 19.24Q24.47 19.15 24.10 18.97L24.10 18.97L24.10 18.97Q23.73 18.79 23.54 18.52L23.54 18.52L23.54 18.52Q23.34 18.24 23.34 17.85L23.34 17.85L23.34 17.85Q23.34 17.70 23.40 17.63L23.40 17.63L23.40 17.63Q23.45 17.57 23.52 17.53L23.52 17.53L23.52 17.53Q23.60 17.50 23.69 17.47L23.69 17.47L23.69 17.47Q23.78 17.45 23.85 17.37L23.85 17.37L23.85 17.37Q23.93 17.29 23.98 17.14L23.98 17.14L23.98 17.14Q24.03 16.99 24.03 16.71L24.03 16.71L24.03 13.77L24.03 13.77Q24.03 13.36 23.98 13.03L23.98 13.03L23.98 13.03Q23.93 12.70 23.81 12.48L23.81 12.48L23.81 12.48Q23.69 12.25 23.50 12.13L23.50 12.13L23.50 12.13Q23.30 12.01 23.01 12.01L23.01 12.01L23.01 12.01Q22.56 12.01 22.36 12.29L22.36 12.29L22.36 12.29Q22.16 12.58 22.16 13.03L22.16 13.03L22.16 16.63L22.16 16.63Q22.16 16.93 22.21 17.09L22.21 17.09L22.21 17.09Q22.26 17.25 22.35 17.34L22.35 17.34L22.35 17.34Q22.44 17.42 22.53 17.46L22.53 17.46L22.53 17.46Q22.63 17.49 22.72 17.53L22.72 17.53L22.72 17.53Q22.80 17.57 22.86 17.63L22.86 17.63L22.86 17.63Q22.91 17.70 22.91 17.85L22.91 17.85L22.91 17.85Q22.91 18.24 22.76 18.52L22.76 18.52L22.76 18.52Q22.61 18.79 22.28 18.97L22.28 18.97L22.28 18.97Q21.96 19.15 21.45 19.24L21.45 19.24L21.45 19.24Q20.94 19.32 20.22 19.32L20.22 19.32L20.22 19.32Q19.53 19.32 18.99 19.24L18.99 19.24L18.99 19.24Q18.46 19.15 18.09 18.97L18.09 18.97L18.09 18.97Q17.72 18.79 17.53 18.52L17.53 18.52L17.53 18.52Q17.34 18.24 17.34 17.85L17.34 17.85L17.34 17.85Q17.34 17.70 17.39 17.63L17.39 17.63L17.39 17.63Q17.44 17.57 17.51 17.53L17.51 17.53L17.51 17.53Q17.59 17.50 17.68 17.47L17.68 17.47L17.68 17.47Q17.77 17.45 17.85 17.37L17.85 17.37L17.85 17.37Q17.92 17.29 17.98 17.14L17.98 17.14L17.98 17.14Q18.03 16.99 18.03 16.71L18.03 16.71L18.03 13.77L18.03 13.77Q18.03 12.94 17.82 12.48L17.82 12.48L17.82 12.48Q17.62 12.02 17.10 12.02L17.10 12.02L17.10 12.02Q16.90 12.02 16.71 12.10L16.71 12.10L16.71 12.10Q16.53 12.17 16.39 12.31L16.39 12.31L16.39 12.31Q16.24 12.46 16.16 12.65L16.16 12.65L16.16 12.65Q16.08 12.84 16.08 13.06L16.08 13.06L16.08 16.69L16.08 16.69Q16.08 16.97 16.14 17.12L16.14 17.12L16.14 17.12Q16.19 17.28 16.28 17.36L16.28 17.36L16.28 17.36Q16.37 17.44 16.48 17.47L16.48 17.47L16.48 17.47Q16.58 17.50 16.67 17.53L16.67 17.53L16.67 17.53Q16.76 17.57 16.82 17.63L16.82 17.63L16.82 17.63Q16.88 17.70 16.88 17.85L16.88 17.85L16.88 17.85Q16.88 18.63 16.10 18.97L16.10 18.97L16.10 18.97Q15.33 19.32 13.87 19.32L13.87 19.32L13.87 19.32Q13.17 19.32 12.61 19.24L12.61 19.24L12.61 19.24Q12.06 19.15 11.68 18.97L11.68 18.97L11.68 18.97Q11.30 18.79 11.10 18.52L11.10 18.52L11.10 18.52Q10.90 18.24 10.90 17.85L10.90 17.85L10.90 17.85Q10.90 17.70 10.97 17.63L10.97 17.63L10.97 17.63Q11.05 17.57 11.16 17.53L11.16 17.53L11.16 17.53Q11.27 17.50 11.40 17.47L11.40 17.47L11.40 17.47Q11.53 17.45 11.63 17.37L11.63 17.37L11.63 17.37Q11.74 17.29 11.82 17.14L11.82 17.14L11.82 17.14Q11.89 16.99 11.89 16.71L11.89 16.71L11.89 13.06L11.89 13.06Q11.89 12.79 11.82 12.64L11.82 12.64L11.82 12.64Q11.74 12.49 11.63 12.41L11.63 12.41L11.63 12.41Q11.53 12.33 11.40 12.30L11.40 12.30L11.40 12.30Q11.27 12.28 11.16 12.24L11.16 12.24L11.16 12.24Q11.05 12.21 10.97 12.14L10.97 12.14L10.97 12.14Q10.90 12.08 10.90 11.93L10.90 11.93L10.90 11.93Q10.90 11.54 11.09 11.26L11.09 11.26L11.09 11.26Q11.29 10.99 11.67 10.80L11.67 10.80L11.67 10.80Q12.05 10.62 12.60 10.54L12.60 10.54L12.60 10.54Q13.15 10.46 13.84 10.46L13.84 10.46L13.84 10.46Q14.15 10.46 14.40 10.49L14.40 10.49L14.40 10.49Q14.66 10.52 14.85 10.57L14.85 10.57L14.85 10.57Q15.05 10.62 15.19 10.69L15.19 10.69L15.19 10.69Q15.33 10.75 15.44 10.82L15.44 10.82L15.44 10.82Q15.67 10.99 15.77 11.18L15.77 11.18L15.77 11.18Q16.11 10.93 16.58 10.73L16.58 10.73L16.58 10.73Q16.98 10.55 17.56 10.40L17.56 10.40L17.56 10.40Q18.14 10.26 18.92 10.26L18.92 10.26L18.92 10.26Q19.73 10.26 20.35 10.49L20.35 10.49L20.35 10.49Q20.97 10.72 21.34 11.10ZM34.26 17.92L34.26 17.92L34.26 17.92Q34.49 17.92 34.63 17.85L34.63 17.85L34.63 17.85Q34.77 17.77 34.84 17.64L34.84 17.64L34.84 17.64Q34.92 17.51 34.94 17.31L34.94 17.31L34.94 17.31Q34.97 17.12 34.97 16.87L34.97 16.87L34.97 16.87Q34.97 16.66 34.96 16.33L34.96 16.33L34.96 16.33Q34.95 16.00 34.95 15.69L34.95 15.69L34.95 15.69Q34.93 15.32 34.92 14.92L34.92 14.92L34.92 14.92Q34.83 14.91 34.74 14.90L34.74 14.90L34.74 14.90Q34.66 14.89 34.58 14.89L34.58 14.89L34.58 14.89Q34.23 14.89 33.99 15.03L33.99 15.03L33.99 15.03Q33.76 15.17 33.61 15.42L33.61 15.42L33.61 15.42Q33.47 15.67 33.41 16.01L33.41 16.01L33.41 16.01Q33.35 16.34 33.35 16.74L33.35 16.74L33.35 16.74Q33.35 16.98 33.38 17.20L33.38 17.20L33.38 17.20Q33.41 17.41 33.50 17.57L33.50 17.57L33.50 17.57Q33.60 17.73 33.78 17.82L33.78 17.82L33.78 17.82Q33.96 17.92 34.26 17.92ZM37.56 19.32L37.56 19.32L37.56 19.32Q37.21 19.32 36.86 19.28L36.86 19.28L36.86 19.28Q36.52 19.24 36.21 19.13L36.21 19.13L36.21 19.13Q35.90 19.01 35.64 18.79L35.64 18.79L35.64 18.79Q35.38 18.57 35.19 18.21L35.19 18.21L35.19 18.21Q35.05 18.53 34.75 18.77L34.75 18.77L34.75 18.77Q34.45 19.01 34.06 19.17L34.06 19.17L34.06 19.17Q33.67 19.33 33.25 19.41L33.25 19.41L33.25 19.41Q32.82 19.49 32.43 19.49L32.43 19.49L32.43 19.49Q31.74 19.49 31.22 19.33L31.22 19.33L31.22 19.33Q30.70 19.16 30.34 18.86L30.34 18.86L30.34 18.86Q29.99 18.55 29.81 18.13L29.81 18.13L29.81 18.13Q29.63 17.71 29.63 17.18L29.63 17.18L29.63 17.18Q29.63 16.56 29.84 16.00L29.84 16.00L29.84 16.00Q30.05 15.44 30.55 15.03L30.55 15.03L30.55 15.03Q31.06 14.61 31.90 14.37L31.90 14.37L31.90 14.37Q32.74 14.12 34.00 14.12L34.00 14.12L34.94 14.12L34.94 14.12Q34.94 13.36 34.89 12.87L34.89 12.87L34.89 12.87Q34.84 12.37 34.73 12.07L34.73 12.07L34.73 12.07Q34.62 11.78 34.45 11.66L34.45 11.66L34.45 11.66Q34.29 11.55 34.06 11.55L34.06 11.55L34.06 11.55Q33.80 11.55 33.62 11.70L33.62 11.70L33.62 11.70Q33.45 11.86 33.34 12.16L33.34 12.16L33.34 12.16Q33.24 12.46 33.19 12.88L33.19 12.88L33.19 12.88Q33.15 13.30 33.15 13.83L33.15 13.83L33.15 13.83Q32.85 13.83 32.53 13.82L32.53 13.82L32.53 13.82Q32.20 13.81 31.89 13.77L31.89 13.77L31.89 13.77Q31.57 13.73 31.28 13.64L31.28 13.64L31.28 13.64Q31.00 13.56 30.78 13.41L30.78 13.41L30.78 13.41Q30.56 13.26 30.43 13.04L30.43 13.04L30.43 13.04Q30.30 12.81 30.30 12.49L30.30 12.49L30.30 12.49Q30.30 12.04 30.54 11.63L30.54 11.63L30.54 11.63Q30.78 11.23 31.26 10.93L31.26 10.93L31.26 10.93Q31.75 10.62 32.50 10.44L32.50 10.44L32.50 10.44Q33.26 10.26 34.30 10.26L34.30 10.26L34.30 10.26Q35.51 10.26 36.38 10.51L36.38 10.51L36.38 10.51Q37.26 10.75 37.82 11.25L37.82 11.25L37.82 11.25Q38.38 11.74 38.65 12.49L38.65 12.49L38.65 12.49Q38.92 13.23 38.92 14.24L38.92 14.24L38.92 16.66L38.92 16.66Q38.92 16.95 39.00 17.12L39.00 17.12L39.00 17.12Q39.08 17.28 39.19 17.37L39.19 17.37L39.19 17.37Q39.31 17.45 39.44 17.49L39.44 17.49L39.44 17.49Q39.58 17.52 39.69 17.56L39.69 17.56L39.69 17.56Q39.81 17.60 39.88 17.66L39.88 17.66L39.88 17.66Q39.96 17.73 39.96 17.88L39.96 17.88L39.96 17.88Q39.96 18.56 39.35 18.94L39.35 18.94L39.35 18.94Q38.74 19.32 37.56 19.32ZM45.45 13.03L45.43 16.69L45.43 16.69Q45.43 16.97 45.51 17.12L45.51 17.12L45.51 17.12Q45.58 17.28 45.69 17.36L45.69 17.36L45.69 17.36Q45.81 17.44 45.94 17.47L45.94 17.47L45.94 17.47Q46.07 17.50 46.18 17.53L46.18 17.53L46.18 17.53Q46.29 17.57 46.37 17.63L46.37 17.63L46.37 17.63Q46.44 17.70 46.44 17.85L46.44 17.85L46.44 17.85Q46.44 18.63 45.64 18.97L45.64 18.97L45.64 18.97Q44.83 19.32 43.31 19.32L43.31 19.32L43.31 19.32Q42.57 19.32 42 19.24L42 19.24L42 19.24Q41.43 19.15 41.04 18.97L41.04 18.97L41.04 18.97Q40.65 18.79 40.45 18.52L40.45 18.52L40.45 18.52Q40.25 18.24 40.25 17.85L40.25 17.85L40.25 17.85Q40.25 17.70 40.33 17.63L40.33 17.63L40.33 17.63Q40.40 17.57 40.51 17.53L40.51 17.53L40.51 17.53Q40.62 17.50 40.75 17.47L40.75 17.47L40.75 17.47Q40.88 17.45 40.99 17.37L40.99 17.37L40.99 17.37Q41.10 17.29 41.17 17.14L41.17 17.14L41.17 17.14Q41.25 16.99 41.25 16.71L41.25 16.71L41.25 13.06L41.25 13.06Q41.25 12.79 41.17 12.64L41.17 12.64L41.17 12.64Q41.10 12.49 40.99 12.41L40.99 12.41L40.99 12.41Q40.88 12.33 40.75 12.30L40.75 12.30L40.75 12.30Q40.62 12.28 40.51 12.24L40.51 12.24L40.51 12.24Q40.40 12.21 40.33 12.14L40.33 12.14L40.33 12.14Q40.25 12.08 40.25 11.93L40.25 11.93L40.25 11.93Q40.25 11.54 40.45 11.26L40.45 11.26L40.45 11.26Q40.65 10.99 41.04 10.80L41.04 10.80L41.04 10.80Q41.43 10.62 42 10.54L42 10.54L42 10.54Q42.57 10.46 43.31 10.46L43.31 10.46L43.31 10.46Q43.98 10.46 44.39 10.59L44.39 10.59L44.39 10.59Q44.80 10.73 45.03 10.99L45.03 10.99L45.03 10.99Q45.22 10.86 45.42 10.75L45.42 10.75L45.42 10.75Q45.63 10.64 45.86 10.55L45.86 10.55L45.86 10.55Q46.09 10.47 46.37 10.42L46.37 10.42L46.37 10.42Q46.64 10.37 46.97 10.37L46.97 10.37L46.97 10.37Q47.38 10.37 47.76 10.46L47.76 10.46L47.76 10.46Q48.14 10.54 48.43 10.74L48.43 10.74L48.43 10.74Q48.73 10.93 48.90 11.24L48.90 11.24L48.90 11.24Q49.08 11.55 49.08 12.01L49.08 12.01L49.08 12.01Q49.08 12.31 48.97 12.60L48.97 12.60L48.97 12.60Q48.87 12.89 48.67 13.11L48.67 13.11L48.67 13.11Q48.47 13.33 48.16 13.47L48.16 13.47L48.16 13.47Q47.86 13.60 47.46 13.60L47.46 13.60L47.46 13.60Q47.07 13.60 46.84 13.49L46.84 13.49L46.84 13.49Q46.61 13.37 46.49 13.20L46.49 13.20L46.49 13.20Q46.37 13.03 46.31 12.83L46.31 12.83L46.31 12.83Q46.25 12.63 46.19 12.46L46.19 12.46L46.19 12.46Q46.12 12.28 46.02 12.17L46.02 12.17L46.02 12.17Q45.91 12.05 45.70 12.05L45.70 12.05L45.70 12.05Q45.49 12.05 45.42 12.10L45.42 12.10L45.42 12.10Q45.35 12.15 45.35 12.25L45.35 12.25L45.35 12.25Q45.35 12.37 45.40 12.56L45.40 12.56L45.40 12.56Q45.45 12.76 45.45 13.03L45.45 13.03ZM54.43 11.83L54.45 15.91L54.45 15.91Q54.45 16.14 54.46 16.35L54.46 16.35L54.46 16.35Q54.48 16.56 54.54 16.72L54.54 16.72L54.54 16.72Q54.61 16.88 54.76 16.98L54.76 16.98L54.76 16.98Q54.90 17.08 55.15 17.08L55.15 17.08L55.15 17.08Q55.51 17.08 55.77 16.98L55.77 16.98L55.77 16.98Q56.03 16.89 56.31 16.74L56.31 16.74L56.31 16.74Q56.42 16.68 56.52 16.68L56.52 16.68L56.52 16.68Q56.68 16.68 56.77 16.82L56.77 16.82L56.77 16.82Q56.86 16.95 56.86 17.12L56.86 17.12L56.86 17.12Q56.86 17.24 56.83 17.32L56.83 17.32L56.83 17.32Q56.63 17.82 56.32 18.22L56.32 18.22L56.32 18.22Q56.01 18.63 55.60 18.91L55.60 18.91L55.60 18.91Q55.19 19.19 54.71 19.34L54.71 19.34L54.71 19.34Q54.22 19.49 53.67 19.49L53.67 19.49L53.67 19.49Q52.90 19.49 52.36 19.29L52.36 19.29L52.36 19.29Q51.81 19.10 51.43 18.77L51.43 18.77L51.43 18.77Q51.06 18.45 50.83 18.02L50.83 18.02L50.83 18.02Q50.61 17.60 50.49 17.13L50.49 17.13L50.49 17.13Q50.37 16.66 50.33 16.18L50.33 16.18L50.33 16.18Q50.29 15.71 50.29 15.29L50.29 15.29L50.29 11.83L49.96 11.83L49.96 11.83Q49.70 11.83 49.56 11.68L49.56 11.68L49.56 11.68Q49.42 11.53 49.42 11.35L49.42 11.35L49.42 11.35Q49.42 11.14 49.61 11.00L49.61 11.00L49.61 11.00Q50.41 10.42 51.07 9.89L51.07 9.89L51.07 9.89Q51.73 9.35 52.21 8.93L52.21 8.93L52.21 8.93Q52.77 8.44 53.22 8.00L53.22 8.00L53.22 8.00Q53.40 7.83 53.58 7.74L53.58 7.74L53.58 7.74Q53.76 7.66 53.94 7.66L53.94 7.66L53.94 7.66Q54.15 7.66 54.29 7.80L54.29 7.80L54.29 7.80Q54.43 7.94 54.43 8.24L54.43 8.24L54.43 10.46L56.10 10.46L56.10 10.46Q56.18 10.46 56.30 10.47L56.30 10.47L56.30 10.47Q56.41 10.48 56.51 10.54L56.51 10.54L56.51 10.54Q56.62 10.60 56.69 10.74L56.69 10.74L56.69 10.74Q56.76 10.87 56.76 11.12L56.76 11.12L56.76 11.12Q56.76 11.38 56.69 11.53L56.69 11.53L56.69 11.53Q56.62 11.67 56.52 11.74L56.52 11.74L56.52 11.74Q56.42 11.81 56.30 11.82L56.30 11.82L56.30 11.82Q56.19 11.83 56.10 11.83L56.10 11.83L54.43 11.83ZM66.42 13.55L66.42 13.55L66.42 13.55Q66.42 13.91 66.34 14.25L66.34 14.25L66.34 14.25Q66.25 14.59 66.08 14.86L66.08 14.86L66.08 14.86Q65.91 15.12 65.65 15.28L65.65 15.28L65.65 15.28Q65.38 15.44 65.00 15.44L65.00 15.44L65.00 15.44Q64.78 15.44 64.63 15.35L64.63 15.35L64.63 15.35Q64.48 15.26 64.37 15.09L64.37 15.09L64.37 15.09Q64.25 14.92 64.14 14.69L64.14 14.69L64.14 14.69Q64.03 14.46 63.90 14.18L63.90 14.18L63.35 14.11L63.35 17.92L65.69 17.81L65.97 16.62L65.97 16.62Q66.08 16.23 66.25 15.96L66.25 15.96L66.25 15.96Q66.41 15.69 66.61 15.52L66.61 15.52L66.61 15.52Q66.80 15.35 67.02 15.28L67.02 15.28L67.02 15.28Q67.24 15.20 67.46 15.20L67.46 15.20L67.46 15.20Q67.71 15.20 67.93 15.29L67.93 15.29L67.93 15.29Q68.15 15.37 68.31 15.54L68.31 15.54L68.31 15.54Q68.47 15.70 68.56 15.93L68.56 15.93L68.56 15.93Q68.65 16.16 68.65 16.45L68.65 16.45L68.65 16.45Q68.65 16.73 68.59 17.05L68.59 17.05L68.59 17.05Q68.53 17.38 68.42 17.69L68.42 17.69L68.42 17.69Q68.30 18.01 68.13 18.31L68.13 18.31L68.13 18.31Q67.96 18.60 67.73 18.83L67.73 18.83L67.73 18.83Q67.50 19.05 67.21 19.19L67.21 19.19L67.21 19.19Q66.92 19.32 66.57 19.32L66.57 19.32L60.62 19.32L60.62 19.32Q59.81 19.32 59.19 19.23L59.19 19.23L59.19 19.23Q58.56 19.13 58.14 18.94L58.14 18.94L58.14 18.94Q57.71 18.74 57.49 18.44L57.49 18.44L57.49 18.44Q57.26 18.13 57.26 17.71L57.26 17.71L57.26 17.71Q57.26 17.54 57.35 17.47L57.35 17.47L57.35 17.47Q57.43 17.40 57.55 17.36L57.55 17.36L57.55 17.36Q57.67 17.32 57.81 17.29L57.81 17.29L57.81 17.29Q57.95 17.25 58.07 17.17L58.07 17.17L58.07 17.17Q58.19 17.08 58.27 16.92L58.27 16.92L58.27 16.92Q58.35 16.75 58.35 16.45L58.35 16.45L58.35 11.29L58.35 11.29Q58.35 10.99 58.27 10.82L58.27 10.82L58.27 10.82Q58.19 10.66 58.07 10.57L58.07 10.57L58.07 10.57Q57.95 10.49 57.81 10.45L57.81 10.45L57.81 10.45Q57.67 10.42 57.55 10.38L57.55 10.38L57.55 10.38Q57.43 10.34 57.35 10.27L57.35 10.27L57.35 10.27Q57.26 10.20 57.26 10.04L57.26 10.04L57.26 10.04Q57.26 9.61 57.49 9.31L57.49 9.31L57.49 9.31Q57.71 9.00 58.14 8.81L58.14 8.81L58.14 8.81Q58.56 8.61 59.19 8.52L59.19 8.52L59.19 8.52Q59.81 8.43 60.62 8.43L60.62 8.43L66.49 8.43L66.49 8.43Q66.99 8.43 67.35 8.70L67.35 8.70L67.35 8.70Q67.72 8.98 67.97 9.39L67.97 9.39L67.97 9.39Q68.21 9.80 68.33 10.28L68.33 10.28L68.33 10.28Q68.45 10.76 68.45 11.17L68.45 11.17L68.45 11.17Q68.45 11.44 68.36 11.66L68.36 11.66L68.36 11.66Q68.28 11.88 68.12 12.03L68.12 12.03L68.12 12.03Q67.97 12.18 67.76 12.26L67.76 12.26L67.76 12.26Q67.55 12.35 67.31 12.35L67.31 12.35L67.31 12.35Q67.10 12.35 66.90 12.27L66.90 12.27L66.90 12.27Q66.69 12.20 66.51 12.04L66.51 12.04L66.51 12.04Q66.32 11.88 66.17 11.62L66.17 11.62L66.17 11.62Q66.01 11.37 65.90 11.00L65.90 11.00L65.63 9.86L63.35 9.86L63.35 13.00L63.90 12.93L63.90 12.93Q64.03 12.66 64.14 12.43L64.14 12.43L64.14 12.43Q64.25 12.20 64.37 12.03L64.37 12.03L64.37 12.03Q64.48 11.86 64.63 11.77L64.63 11.77L64.63 11.77Q64.78 11.68 65.00 11.68L65.00 11.68L65.00 11.68Q65.38 11.68 65.65 11.84L65.65 11.84L65.65 11.84Q65.91 12.00 66.08 12.26L66.08 12.26L66.08 12.26Q66.25 12.52 66.34 12.85L66.34 12.85L66.34 12.85Q66.42 13.19 66.42 13.55ZM73.94 10.26L73.94 10.26L73.94 10.26Q74.96 10.26 75.68 10.49L75.68 10.49L75.68 10.49Q76.41 10.71 76.87 11.09L76.87 11.09L76.87 11.09Q77.33 11.48 77.54 11.99L77.54 11.99L77.54 11.99Q77.75 12.50 77.75 13.08L77.75 13.08L77.75 13.08Q77.75 13.32 77.68 13.50L77.68 13.50L77.68 13.50Q77.60 13.69 77.48 13.82L77.48 13.82L77.48 13.82Q77.35 13.95 77.17 14.01L77.17 14.01L77.17 14.01Q76.99 14.08 76.79 14.08L76.79 14.08L76.79 14.08Q76.61 14.08 76.43 14.02L76.43 14.02L76.43 14.02Q76.24 13.96 76.08 13.82L76.08 13.82L76.08 13.82Q75.91 13.69 75.78 13.47L75.78 13.47L75.78 13.47Q75.65 13.25 75.58 12.93L75.58 12.93L75.58 12.93Q75.53 12.71 75.42 12.54L75.42 12.54L75.42 12.54Q75.31 12.37 75.17 12.25L75.17 12.25L75.17 12.25Q75.03 12.13 74.86 12.07L74.86 12.07L74.86 12.07Q74.70 12.01 74.53 12.01L74.53 12.01L74.53 12.01Q74.24 12.01 74.02 12.13L74.02 12.13L74.02 12.13Q73.81 12.26 73.66 12.49L73.66 12.49L73.66 12.49Q73.52 12.73 73.45 13.07L73.45 13.07L73.45 13.07Q73.38 13.41 73.38 13.83L73.38 13.83L73.38 13.83Q73.38 15.47 73.88 16.26L73.88 16.26L73.88 16.26Q74.38 17.05 75.47 17.05L75.47 17.05L75.47 17.05Q75.78 17.05 76.11 16.96L76.11 16.96L76.11 16.96Q76.44 16.88 76.72 16.78L76.72 16.78L76.72 16.78Q77 16.67 77.21 16.59L77.21 16.59L77.21 16.59Q77.41 16.50 77.49 16.50L77.49 16.50L77.49 16.50Q77.64 16.50 77.73 16.64L77.73 16.64L77.73 16.64Q77.82 16.77 77.82 16.94L77.82 16.94L77.82 16.94Q77.82 16.99 77.82 17.04L77.82 17.04L77.82 17.04Q77.81 17.09 77.79 17.14L77.79 17.14L77.79 17.14Q77.59 17.64 77.23 18.07L77.23 18.07L77.23 18.07Q76.87 18.50 76.37 18.82L76.37 18.82L76.37 18.82Q75.87 19.13 75.23 19.31L75.23 19.31L75.23 19.31Q74.59 19.49 73.85 19.49L73.85 19.49L73.85 19.49Q73.08 19.49 72.45 19.31L72.45 19.31L72.45 19.31Q71.81 19.13 71.30 18.80L71.30 18.80L71.30 18.80Q70.79 18.48 70.41 18.04L70.41 18.04L70.41 18.04Q70.03 17.60 69.78 17.09L69.78 17.09L69.78 17.09Q69.52 16.57 69.40 16.01L69.40 16.01L69.40 16.01Q69.27 15.44 69.27 14.87L69.27 14.87L69.27 14.87Q69.27 14.29 69.40 13.72L69.40 13.72L69.40 13.72Q69.53 13.15 69.79 12.63L69.79 12.63L69.79 12.63Q70.05 12.12 70.44 11.69L70.44 11.69L70.44 11.69Q70.83 11.25 71.35 10.93L71.35 10.93L71.35 10.93Q71.87 10.62 72.52 10.44L72.52 10.44L72.52 10.44Q73.17 10.26 73.94 10.26ZM83.24 19.49L83.24 19.49L83.24 19.49Q82.43 19.49 81.75 19.30L81.75 19.30L81.75 19.30Q81.07 19.11 80.52 18.77L80.52 18.77L80.52 18.77Q79.98 18.44 79.57 17.99L79.57 17.99L79.57 17.99Q79.16 17.54 78.89 17.02L78.89 17.02L78.89 17.02Q78.61 16.50 78.48 15.93L78.48 15.93L78.48 15.93Q78.34 15.36 78.34 14.79L78.34 14.79L78.34 14.79Q78.34 14.21 78.49 13.65L78.49 13.65L78.49 13.65Q78.63 13.08 78.93 12.58L78.93 12.58L78.93 12.58Q79.23 12.07 79.67 11.65L79.67 11.65L79.67 11.65Q80.12 11.22 80.72 10.92L80.72 10.92L80.72 10.92Q81.31 10.61 82.06 10.44L82.06 10.44L82.06 10.44Q82.81 10.26 83.71 10.26L83.71 10.26L83.71 10.26Q84.51 10.26 85.17 10.44L85.17 10.44L85.17 10.44Q85.83 10.62 86.36 10.93L86.36 10.93L86.36 10.93Q86.89 11.24 87.29 11.66L87.29 11.66L87.29 11.66Q87.69 12.09 87.96 12.58L87.96 12.58L87.96 12.58Q88.22 13.08 88.36 13.64L88.36 13.64L88.36 13.64Q88.49 14.19 88.49 14.75L88.49 14.75L88.49 14.75Q88.49 15.33 88.35 15.91L88.35 15.91L88.35 15.91Q88.20 16.50 87.91 17.02L87.91 17.02L87.91 17.02Q87.62 17.55 87.19 18.00L87.19 18.00L87.19 18.00Q86.75 18.45 86.16 18.78L86.16 18.78L86.16 18.78Q85.58 19.11 84.85 19.30L84.85 19.30L84.85 19.30Q84.12 19.49 83.24 19.49ZM83.55 17.74L83.55 17.74L83.55 17.74Q83.77 17.74 83.93 17.61L83.93 17.61L83.93 17.61Q84.08 17.47 84.18 17.22L84.18 17.22L84.18 17.22Q84.27 16.97 84.31 16.61L84.31 16.61L84.31 16.61Q84.36 16.25 84.36 15.80L84.36 15.80L84.36 15.80Q84.36 15.42 84.35 14.98L84.35 14.98L84.35 14.98Q84.34 14.55 84.31 14.13L84.31 14.13L84.31 14.13Q84.29 13.71 84.23 13.32L84.23 13.32L84.23 13.32Q84.16 12.94 84.05 12.65L84.05 12.65L84.05 12.65Q83.94 12.35 83.77 12.18L83.77 12.18L83.77 12.18Q83.60 12.01 83.35 12.01L83.35 12.01L83.35 12.01Q83.11 12.01 82.94 12.14L82.94 12.14L82.94 12.14Q82.78 12.28 82.67 12.52L82.67 12.52L82.67 12.52Q82.56 12.76 82.51 13.09L82.51 13.09L82.51 13.09Q82.46 13.43 82.46 13.83L82.46 13.83L82.46 13.83Q82.46 14.21 82.47 14.64L82.47 14.64L82.47 14.64Q82.48 15.08 82.52 15.51L82.52 15.51L82.52 15.51Q82.56 15.95 82.64 16.35L82.64 16.35L82.64 16.35Q82.72 16.75 82.84 17.06L82.84 17.06L82.84 17.06Q82.96 17.37 83.14 17.55L83.14 17.55L83.14 17.55Q83.31 17.74 83.55 17.74ZM94.32 13.06L94.30 16.69L94.30 16.69Q94.30 16.97 94.38 17.12L94.38 17.12L94.38 17.12Q94.45 17.28 94.56 17.36L94.56 17.36L94.56 17.36Q94.68 17.44 94.81 17.47L94.81 17.47L94.81 17.47Q94.94 17.50 95.05 17.53L95.05 17.53L95.05 17.53Q95.16 17.57 95.24 17.63L95.24 17.63L95.24 17.63Q95.31 17.70 95.31 17.85L95.31 17.85L95.31 17.85Q95.31 18.63 94.51 18.97L94.51 18.97L94.51 18.97Q93.70 19.32 92.18 19.32L92.18 19.32L92.18 19.32Q91.44 19.32 90.87 19.24L90.87 19.24L90.87 19.24Q90.30 19.15 89.91 18.97L89.91 18.97L89.91 18.97Q89.52 18.79 89.32 18.52L89.32 18.52L89.32 18.52Q89.12 18.24 89.12 17.85L89.12 17.85L89.12 17.85Q89.12 17.70 89.20 17.63L89.20 17.63L89.20 17.63Q89.27 17.57 89.38 17.53L89.38 17.53L89.38 17.53Q89.49 17.50 89.62 17.47L89.62 17.47L89.62 17.47Q89.75 17.45 89.86 17.37L89.86 17.37L89.86 17.37Q89.97 17.29 90.04 17.14L90.04 17.14L90.04 17.14Q90.12 16.99 90.12 16.71L90.12 16.71L90.12 13.06L90.12 13.06Q90.12 12.79 90.04 12.64L90.04 12.64L90.04 12.64Q89.97 12.49 89.86 12.41L89.86 12.41L89.86 12.41Q89.75 12.33 89.62 12.30L89.62 12.30L89.62 12.30Q89.49 12.28 89.38 12.24L89.38 12.24L89.38 12.24Q89.27 12.21 89.20 12.14L89.20 12.14L89.20 12.14Q89.12 12.08 89.12 11.93L89.12 11.93L89.12 11.93Q89.12 11.54 89.32 11.26L89.32 11.26L89.32 11.26Q89.52 10.99 89.91 10.80L89.91 10.80L89.91 10.80Q90.30 10.62 90.87 10.54L90.87 10.54L90.87 10.54Q91.44 10.46 92.18 10.46L92.18 10.46L92.18 10.46Q92.85 10.46 93.24 10.57L93.24 10.57L93.24 10.57Q93.64 10.68 93.86 10.82L93.86 10.82L93.86 10.82Q94.11 10.99 94.21 11.18L94.21 11.18L94.21 11.18Q94.56 10.93 95.05 10.73L95.05 10.73L95.05 10.73Q95.48 10.55 96.09 10.40L96.09 10.40L96.09 10.40Q96.70 10.26 97.52 10.26L97.52 10.26L97.52 10.26Q98.27 10.26 98.82 10.45L98.82 10.45L98.82 10.45Q99.36 10.64 99.74 10.95L99.74 10.95L99.74 10.95Q100.12 11.27 100.35 11.69L100.35 11.69L100.35 11.69Q100.58 12.11 100.71 12.57L100.71 12.57L100.71 12.57Q100.84 13.03 100.88 13.50L100.88 13.50L100.88 13.50Q100.93 13.97 100.93 14.39L100.93 14.39L100.93 16.65L100.93 16.65Q100.93 16.94 101.00 17.10L101.00 17.10L101.00 17.10Q101.08 17.26 101.19 17.35L101.19 17.35L101.19 17.35Q101.31 17.43 101.44 17.46L101.44 17.46L101.44 17.46Q101.58 17.49 101.69 17.53L101.69 17.53L101.69 17.53Q101.81 17.57 101.88 17.63L101.88 17.63L101.88 17.63Q101.96 17.70 101.96 17.85L101.96 17.85L101.96 17.85Q101.96 18.63 101.15 18.97L101.15 18.97L101.15 18.97Q100.35 19.32 98.83 19.32L98.83 19.32L98.83 19.32Q98.09 19.32 97.52 19.24L97.52 19.24L97.52 19.24Q96.95 19.15 96.56 18.97L96.56 18.97L96.56 18.97Q96.17 18.79 95.97 18.52L95.97 18.52L95.97 18.52Q95.77 18.24 95.77 17.85L95.77 17.85L95.77 17.85Q95.77 17.70 95.85 17.63L95.85 17.63L95.85 17.63Q95.92 17.57 96.04 17.53L96.04 17.53L96.04 17.53Q96.15 17.50 96.28 17.47L96.28 17.47L96.28 17.47Q96.41 17.45 96.53 17.37L96.53 17.37L96.53 17.37Q96.65 17.29 96.72 17.14L96.72 17.14L96.72 17.14Q96.80 16.99 96.80 16.71L96.80 16.71L96.80 13.79L96.80 13.79Q96.80 13.37 96.73 13.04L96.73 13.04L96.73 13.04Q96.67 12.71 96.51 12.48L96.51 12.48L96.51 12.48Q96.36 12.25 96.11 12.13L96.11 12.13L96.11 12.13Q95.85 12.01 95.48 12.01L95.48 12.01L95.48 12.01Q95.24 12.01 95.03 12.09L95.03 12.09L95.03 12.09Q94.81 12.17 94.66 12.31L94.66 12.31L94.66 12.31Q94.50 12.45 94.41 12.64L94.41 12.64L94.41 12.64Q94.32 12.84 94.32 13.06L94.32 13.06ZM107.13 19.49L107.13 19.49L107.13 19.49Q106.32 19.49 105.64 19.30L105.64 19.30L105.64 19.30Q104.96 19.11 104.42 18.77L104.42 18.77L104.42 18.77Q103.87 18.44 103.46 17.99L103.46 17.99L103.46 17.99Q103.05 17.54 102.78 17.02L102.78 17.02L102.78 17.02Q102.50 16.50 102.37 15.93L102.37 15.93L102.37 15.93Q102.23 15.36 102.23 14.79L102.23 14.79L102.23 14.79Q102.23 14.21 102.38 13.65L102.38 13.65L102.38 13.65Q102.53 13.08 102.82 12.58L102.82 12.58L102.82 12.58Q103.12 12.07 103.56 11.65L103.56 11.65L103.56 11.65Q104.01 11.22 104.61 10.92L104.61 10.92L104.61 10.92Q105.21 10.61 105.95 10.44L105.95 10.44L105.95 10.44Q106.70 10.26 107.60 10.26L107.60 10.26L107.60 10.26Q108.40 10.26 109.06 10.44L109.06 10.44L109.06 10.44Q109.72 10.62 110.25 10.93L110.25 10.93L110.25 10.93Q110.78 11.24 111.18 11.66L111.18 11.66L111.18 11.66Q111.58 12.09 111.85 12.58L111.85 12.58L111.85 12.58Q112.12 13.08 112.25 13.64L112.25 13.64L112.25 13.64Q112.38 14.19 112.38 14.75L112.38 14.75L112.38 14.75Q112.38 15.33 112.24 15.91L112.24 15.91L112.24 15.91Q112.10 16.50 111.81 17.02L111.81 17.02L111.81 17.02Q111.51 17.55 111.08 18.00L111.08 18.00L111.08 18.00Q110.64 18.45 110.06 18.78L110.06 18.78L110.06 18.78Q109.47 19.11 108.74 19.30L108.74 19.30L108.74 19.30Q108.01 19.49 107.13 19.49ZM107.44 17.74L107.44 17.74L107.44 17.74Q107.67 17.74 107.82 17.61L107.82 17.61L107.82 17.61Q107.97 17.47 108.07 17.22L108.07 17.22L108.07 17.22Q108.17 16.97 108.21 16.61L108.21 16.61L108.21 16.61Q108.25 16.25 108.25 15.80L108.25 15.80L108.25 15.80Q108.25 15.42 108.24 14.98L108.24 14.98L108.24 14.98Q108.23 14.55 108.21 14.13L108.21 14.13L108.21 14.13Q108.18 13.71 108.12 13.32L108.12 13.32L108.12 13.32Q108.06 12.94 107.94 12.65L107.94 12.65L107.94 12.65Q107.83 12.35 107.66 12.18L107.66 12.18L107.66 12.18Q107.49 12.01 107.24 12.01L107.24 12.01L107.24 12.01Q107.00 12.01 106.84 12.14L106.84 12.14L106.84 12.14Q106.67 12.28 106.56 12.52L106.56 12.52L106.56 12.52Q106.45 12.76 106.40 13.09L106.40 13.09L106.40 13.09Q106.35 13.43 106.35 13.83L106.35 13.83L106.35 13.83Q106.35 14.21 106.36 14.64L106.36 14.64L106.36 14.64Q106.37 15.08 106.42 15.51L106.42 15.51L106.42 15.51Q106.46 15.95 106.53 16.35L106.53 16.35L106.53 16.35Q106.61 16.75 106.73 17.06L106.73 17.06L106.73 17.06Q106.85 17.37 107.03 17.55L107.03 17.55L107.03 17.55Q107.20 17.74 107.44 17.74ZM123.42 11.10L123.42 11.10L123.42 11.10Q123.53 11.03 123.72 10.89L123.72 10.89L123.72 10.89Q123.91 10.75 124.28 10.61L124.28 10.61L124.28 10.61Q124.65 10.47 125.25 10.36L125.25 10.36L125.25 10.36Q125.86 10.26 126.82 10.26L126.82 10.26L126.82 10.26Q127.54 10.26 128.07 10.43L128.07 10.43L128.07 10.43Q128.60 10.60 128.98 10.90L128.98 10.90L128.98 10.90Q129.36 11.19 129.61 11.59L129.61 11.59L129.61 11.59Q129.86 11.99 130.00 12.45L130.00 12.45L130.00 12.45Q130.14 12.91 130.20 13.41L130.20 13.41L130.20 13.41Q130.25 13.91 130.25 14.40L130.25 14.40L130.25 14.47L130.25 14.47Q130.25 15.29 130.24 15.73L130.24 15.73L130.24 15.73Q130.24 16.17 130.24 16.37L130.24 16.37L130.24 16.37Q130.24 16.58 130.24 16.61L130.24 16.61L130.24 16.61Q130.24 16.65 130.24 16.65L130.24 16.65L130.24 16.65Q130.24 16.94 130.31 17.10L130.31 17.10L130.31 17.10Q130.39 17.26 130.50 17.35L130.50 17.35L130.50 17.35Q130.61 17.43 130.75 17.46L130.75 17.46L130.75 17.46Q130.88 17.49 130.99 17.53L130.99 17.53L130.99 17.53Q131.11 17.57 131.18 17.63L131.18 17.63L131.18 17.63Q131.26 17.70 131.26 17.85L131.26 17.85L131.26 17.85Q131.26 18.24 131.06 18.52L131.06 18.52L131.06 18.52Q130.87 18.79 130.49 18.97L130.49 18.97L130.49 18.97Q130.12 19.15 129.56 19.24L129.56 19.24L129.56 19.24Q129.01 19.32 128.30 19.32L128.30 19.32L128.30 19.32Q127.61 19.32 127.08 19.24L127.08 19.24L127.08 19.24Q126.54 19.15 126.17 18.97L126.17 18.97L126.17 18.97Q125.80 18.79 125.61 18.52L125.61 18.52L125.61 18.52Q125.42 18.24 125.42 17.85L125.42 17.85L125.42 17.85Q125.42 17.70 125.47 17.63L125.47 17.63L125.47 17.63Q125.52 17.57 125.60 17.53L125.60 17.53L125.60 17.53Q125.67 17.50 125.76 17.47L125.76 17.47L125.76 17.47Q125.85 17.45 125.92 17.37L125.92 17.37L125.92 17.37Q126 17.29 126.05 17.14L126.05 17.14L126.05 17.14Q126.10 16.99 126.10 16.71L126.10 16.71L126.10 13.77L126.10 13.77Q126.10 13.36 126.05 13.03L126.05 13.03L126.05 13.03Q126 12.70 125.88 12.48L125.88 12.48L125.88 12.48Q125.77 12.25 125.57 12.13L125.57 12.13L125.57 12.13Q125.38 12.01 125.08 12.01L125.08 12.01L125.08 12.01Q124.63 12.01 124.43 12.29L124.43 12.29L124.43 12.29Q124.23 12.58 124.23 13.03L124.23 13.03L124.23 16.63L124.23 16.63Q124.23 16.93 124.28 17.09L124.28 17.09L124.28 17.09Q124.34 17.25 124.42 17.34L124.42 17.34L124.42 17.34Q124.51 17.42 124.61 17.46L124.61 17.46L124.61 17.46Q124.71 17.49 124.79 17.53L124.79 17.53L124.79 17.53Q124.88 17.57 124.93 17.63L124.93 17.63L124.93 17.63Q124.99 17.70 124.99 17.85L124.99 17.85L124.99 17.85Q124.99 18.24 124.83 18.52L124.83 18.52L124.83 18.52Q124.68 18.79 124.36 18.97L124.36 18.97L124.36 18.97Q124.03 19.15 123.52 19.24L123.52 19.24L123.52 19.24Q123.01 19.32 122.29 19.32L122.29 19.32L122.29 19.32Q121.60 19.32 121.07 19.24L121.07 19.24L121.07 19.24Q120.53 19.15 120.16 18.97L120.16 18.97L120.16 18.97Q119.79 18.79 119.60 18.52L119.60 18.52L119.60 18.52Q119.41 18.24 119.41 17.85L119.41 17.85L119.41 17.85Q119.41 17.70 119.46 17.63L119.46 17.63L119.46 17.63Q119.51 17.57 119.59 17.53L119.59 17.53L119.59 17.53Q119.66 17.50 119.76 17.47L119.76 17.47L119.76 17.47Q119.85 17.45 119.92 17.37L119.92 17.37L119.92 17.37Q120.00 17.29 120.05 17.14L120.05 17.14L120.05 17.14Q120.10 16.99 120.10 16.71L120.10 16.71L120.10 13.77L120.10 13.77Q120.10 12.94 119.90 12.48L119.90 12.48L119.90 12.48Q119.70 12.02 119.18 12.02L119.18 12.02L119.18 12.02Q118.97 12.02 118.79 12.10L118.79 12.10L118.79 12.10Q118.60 12.17 118.46 12.31L118.46 12.31L118.46 12.31Q118.32 12.46 118.23 12.65L118.23 12.65L118.23 12.65Q118.15 12.84 118.15 13.06L118.15 13.06L118.15 16.69L118.15 16.69Q118.15 16.97 118.21 17.12L118.21 17.12L118.21 17.12Q118.27 17.28 118.36 17.36L118.36 17.36L118.36 17.36Q118.45 17.44 118.55 17.47L118.55 17.47L118.55 17.47Q118.66 17.50 118.75 17.53L118.75 17.53L118.75 17.53Q118.84 17.57 118.89 17.63L118.89 17.63L118.89 17.63Q118.95 17.70 118.95 17.85L118.95 17.85L118.95 17.85Q118.95 18.63 118.18 18.97L118.18 18.97L118.18 18.97Q117.40 19.32 115.94 19.32L115.94 19.32L115.94 19.32Q115.24 19.32 114.69 19.24L114.69 19.24L114.69 19.24Q114.13 19.15 113.75 18.97L113.75 18.97L113.75 18.97Q113.37 18.79 113.17 18.52L113.17 18.52L113.17 18.52Q112.97 18.24 112.97 17.85L112.97 17.85L112.97 17.85Q112.97 17.70 113.05 17.63L113.05 17.63L113.05 17.63Q113.12 17.57 113.23 17.53L113.23 17.53L113.23 17.53Q113.34 17.50 113.47 17.47L113.47 17.47L113.47 17.47Q113.60 17.45 113.71 17.37L113.71 17.37L113.71 17.37Q113.82 17.29 113.89 17.14L113.89 17.14L113.89 17.14Q113.97 16.99 113.97 16.71L113.97 16.71L113.97 13.06L113.97 13.06Q113.97 12.79 113.89 12.64L113.89 12.64L113.89 12.64Q113.82 12.49 113.71 12.41L113.71 12.41L113.71 12.41Q113.60 12.33 113.47 12.30L113.47 12.30L113.47 12.30Q113.34 12.28 113.23 12.24L113.23 12.24L113.23 12.24Q113.12 12.21 113.05 12.14L113.05 12.14L113.05 12.14Q112.97 12.08 112.97 11.93L112.97 11.93L112.97 11.93Q112.97 11.54 113.17 11.26L113.17 11.26L113.17 11.26Q113.37 10.99 113.75 10.80L113.75 10.80L113.75 10.80Q114.13 10.62 114.67 10.54L114.67 10.54L114.67 10.54Q115.22 10.46 115.91 10.46L115.91 10.46L115.91 10.46Q116.22 10.46 116.48 10.49L116.48 10.49L116.48 10.49Q116.73 10.52 116.93 10.57L116.93 10.57L116.93 10.57Q117.12 10.62 117.26 10.69L117.26 10.69L117.26 10.69Q117.41 10.75 117.51 10.82L117.51 10.82L117.51 10.82Q117.75 10.99 117.84 11.18L117.84 11.18L117.84 11.18Q118.18 10.93 118.65 10.73L118.65 10.73L118.65 10.73Q119.05 10.55 119.64 10.40L119.64 10.40L119.64 10.40Q120.22 10.26 121.00 10.26L121.00 10.26L121.00 10.26Q121.80 10.26 122.42 10.49L122.42 10.49L122.42 10.49Q123.05 10.72 123.42 11.10ZM136.74 12.81L138.00 14.95L139.01 12.81L139.01 12.81Q139.06 12.69 139.07 12.64L139.07 12.64L139.07 12.64Q139.08 12.58 139.08 12.52L139.08 12.52L139.08 12.43L139.08 12.43Q139.08 12.34 138.94 12.25L138.94 12.25L138.94 12.25Q138.80 12.16 138.63 12.07L138.63 12.07L138.63 12.07Q138.46 11.97 138.32 11.86L138.32 11.86L138.32 11.86Q138.18 11.75 138.18 11.62L138.18 11.62L138.18 11.62Q138.18 11.26 138.45 11.03L138.45 11.03L138.45 11.03Q138.71 10.80 139.11 10.67L139.11 10.67L139.11 10.67Q139.51 10.55 139.97 10.50L139.97 10.50L139.97 10.50Q140.43 10.46 140.81 10.46L140.81 10.46L140.81 10.46Q141.70 10.46 142.18 10.73L142.18 10.73L142.18 10.73Q142.67 11.00 142.67 11.62L142.67 11.62L142.67 11.62Q142.67 11.78 142.57 11.86L142.57 11.86L142.57 11.86Q142.48 11.95 142.33 12.00L142.33 12.00L142.33 12.00Q142.18 12.06 141.99 12.10L141.99 12.10L141.99 12.10Q141.80 12.15 141.62 12.23L141.62 12.23L141.62 12.23Q141.44 12.31 141.27 12.44L141.27 12.44L141.27 12.44Q141.11 12.58 141.00 12.81L141.00 12.81L137.59 20.19L137.59 20.19Q137.19 21.06 136.78 21.67L136.78 21.67L136.78 21.67Q136.38 22.27 135.97 22.65L135.97 22.65L135.97 22.65Q135.56 23.03 135.16 23.20L135.16 23.20L135.16 23.20Q134.76 23.37 134.37 23.37L134.37 23.37L134.37 23.37Q133.90 23.37 133.48 23.15L133.48 23.15L133.48 23.15Q133.06 22.93 132.75 22.59L132.75 22.59L132.75 22.59Q132.45 22.24 132.27 21.82L132.27 21.82L132.27 21.82Q132.09 21.40 132.09 20.97L132.09 20.97L132.09 20.97Q132.09 20.43 132.21 20.07L132.21 20.07L132.21 20.07Q132.33 19.70 132.52 19.48L132.52 19.48L132.52 19.48Q132.71 19.26 132.96 19.16L132.96 19.16L132.96 19.16Q133.20 19.07 133.45 19.07L133.45 19.07L133.45 19.07Q133.76 19.07 133.97 19.21L133.97 19.21L133.97 19.21Q134.18 19.36 134.32 19.57L134.32 19.57L134.32 19.57Q134.46 19.79 134.54 20.05L134.54 20.05L134.54 20.05Q134.63 20.30 134.70 20.52L134.70 20.52L134.70 20.52Q134.76 20.73 134.83 20.88L134.83 20.88L134.83 20.88Q134.89 21.03 134.98 21.03L134.98 21.03L134.98 21.03Q135.04 21.03 135.13 20.94L135.13 20.94L135.13 20.94Q135.22 20.84 135.34 20.63L135.34 20.63L135.34 20.63Q135.47 20.41 135.63 20.06L135.63 20.06L135.63 20.06Q135.80 19.71 136.01 19.21L136.01 19.21L132.56 12.81L132.56 12.81Q132.43 12.57 132.26 12.44L132.26 12.44L132.26 12.44Q132.10 12.30 131.93 12.23L131.93 12.23L131.93 12.23Q131.76 12.16 131.61 12.12L131.61 12.12L131.61 12.12Q131.45 12.09 131.32 12.03L131.32 12.03L131.32 12.03Q131.20 11.98 131.12 11.89L131.12 11.89L131.12 11.89Q131.04 11.81 131.04 11.62L131.04 11.62L131.04 11.62Q131.04 11.37 131.17 11.18L131.17 11.18L131.17 11.18Q131.30 11.00 131.53 10.87L131.53 10.87L131.53 10.87Q131.76 10.74 132.06 10.66L132.06 10.66L132.06 10.66Q132.37 10.58 132.72 10.54L132.72 10.54L132.72 10.54Q133.08 10.49 133.46 10.48L133.46 10.48L133.46 10.48Q133.84 10.46 134.22 10.46L134.22 10.46L134.22 10.46Q135.00 10.46 135.58 10.51L135.58 10.51L135.58 10.51Q136.17 10.55 136.55 10.68L136.55 10.68L136.55 10.68Q136.94 10.81 137.13 11.04L137.13 11.04L137.13 11.04Q137.31 11.27 137.31 11.62L137.31 11.62L137.31 11.62Q137.31 11.75 137.19 11.85L137.19 11.85L137.19 11.85Q137.07 11.94 136.92 12.02L136.92 12.02L136.92 12.02Q136.78 12.11 136.66 12.19L136.66 12.19L136.66 12.19Q136.53 12.26 136.53 12.37L136.53 12.37L136.53 12.37Q136.53 12.39 136.55 12.43L136.55 12.43L136.55 12.43Q136.58 12.50 136.62 12.58L136.62 12.58L136.62 12.58Q136.66 12.66 136.74 12.81L136.74 12.81Z"></path></g><defs data-v-fde0c5aa=""><!----></defs><g data-v-fde0c5aa="" id="8189f95b-aa02-46dc-8ba0-ae8f98fc4d7b" stroke="none" fill="#ffffff" transform="matrix(1.1959364008027902,0,0,1.1959364008027902,121.29841193396828,97.94694397751441)"><path d="M23.998 12.064c-6.581 0-11.935 5.354-11.935 11.936s5.354 11.936 11.935 11.936c6.583 0 11.938-5.354 11.938-11.936s-5.355-11.936-11.938-11.936zm.606 18.32v2.166h-1.313v-2.103c-1.207-.022-2.459-.396-3.186-.918l.498-1.394a5.565 5.565 0 0 0 3.001.896c1.479 0 2.478-.856 2.478-2.042 0-1.145-.812-1.854-2.353-2.479-2.126-.833-3.438-1.792-3.438-3.603 0-1.73 1.23-3.041 3.146-3.354V15.45h1.292v2.02c1.248.042 2.103.375 2.707.729l-.521 1.375a5.028 5.028 0 0 0-2.625-.709c-1.604 0-2.207.959-2.207 1.79 0 1.086.77 1.626 2.583 2.377 2.145.874 3.228 1.957 3.228 3.811.001 1.646-1.145 3.186-3.29 3.541z"></path><path d="M20.039 37.936h-4.935v-3.188c-3.09-2.563-5.063-6.429-5.063-10.747 0-3.745 1.49-7.143 3.9-9.652H6.106a.253.253 0 0 0-.253.253v23.335H.922a.253.253 0 0 0-.234.155.253.253 0 0 0 .056.275l9.559 9.56a.254.254 0 0 0 .356-.001l9.559-9.56a.252.252 0 0 0-.179-.43zM47.257 9.634l-9.56-9.56a.252.252 0 0 0-.357 0l-9.56 9.56a.252.252 0 0 0 .178.43h4.935v3.188c3.092 2.563 5.064 6.429 5.064 10.747 0 3.745-1.491 7.143-3.901 9.652h7.837a.253.253 0 0 0 .253-.253V10.064h4.932a.253.253 0 0 0 .179-.43z"></path></g><!----></svg>